<svg xmlns="http://www.w3.org/2000/svg" width="1200" height="660" viewBox="0 0 1200 660">
<defs>
<marker id="arrow" viewBox="0 0 10 10" refX="9" refY="5" markerWidth="7" markerHeight="7" orient="auto-start-reverse">
<path d="M 0 0 L 10 5 L 0 10 z" fill="#111827"/>
</marker>
</defs>
<rect width="1200" height="660" fill="#ffffff"/>
<style>text{font-family:Times New Roman,serif;font-size:17px;fill:#111827}.label{font-size:14px;font-weight:bold;fill:#1f2937}.title{font-size:20px;font-weight:bold}.node{stroke:#111827;stroke-width:2}.arrow{stroke:#111827;stroke-width:2;fill:none;marker-end:url(#arrow)}</style>
<text class="title" x="600" y="30" text-anchor="middle">Общая схема предметной области CryptoTrade</text>
<path class="arrow" d="M 190.0 130.0 L 190.0 190.0"/>
<text class="label" x="190.0" y="165.0" text-anchor="middle">работает с сайтом</text>
<path class="arrow" d="M 1010.0 130.0 L 1010.0 190.0"/>
<text class="label" x="1010.0" y="165.0" text-anchor="middle">управляет</text>
<path class="arrow" d="M 600.0 130.0 L 600.0 190.0"/>
<text class="label" x="600.0" y="165.0" text-anchor="middle">курсы и свечи</text>
<path class="arrow" d="M 310.0 229.0 L 390.0 229.0 L 480.0 229.0"/>
<text class="label" x="395.0" y="217.0" text-anchor="middle">API-запросы</text>
<path class="arrow" d="M 890.0 229.0 L 810.0 229.0 L 720.0 229.0"/>
<text class="label" x="805.0" y="217.0" text-anchor="middle">настройки</text>
<path class="arrow" d="M 190.0 268.0 L 190.0 298.0 L 180.0 330.0"/>
<path class="arrow" d="M 290.0 369.0 L 350.0 369.0"/>
<text class="label" x="320.0" y="363.0" text-anchor="middle">выбор актива</text>
<path class="arrow" d="M 570.0 369.0 L 630.0 369.0"/>
<text class="label" x="600.0" y="363.0" text-anchor="middle">изменяет</text>
<path class="arrow" d="M 850.0 369.0 L 910.0 369.0"/>
<text class="label" x="880.0" y="363.0" text-anchor="middle">фиксируется</text>
<path class="arrow" d="M 600.0 268.0 L 600.0 480.0 L 600.0 520.0"/>
<text class="label" x="660.0" y="470.0" text-anchor="middle">чтение/запись</text>
<path class="arrow" d="M 460.0 408.0 L 460.0 456.0 L 520.0 456.0 L 520.0 520.0"/>
<path class="arrow" d="M 740.0 408.0 L 740.0 456.0 L 680.0 456.0 L 680.0 520.0"/>
<path class="arrow" d="M 1020.0 408.0 L 1020.0 456.0 L 850.0 456.0 L 850.0 564.0"/>
<path class="arrow" d="M 190.0 268.0 L 190.0 456.0 L 180.0 520.0"/>
<path class="arrow" d="M 1010.0 268.0 L 1010.0 456.0 L 1020.0 520.0"/>
<path class="arrow" d="M 910.0 564.0 L 850.0 564.0"/>
<text class="label" x="880.0" y="548.0" text-anchor="middle">создает учебные данные</text>
<rect class="node" x="70" y="60" width="240" height="70" rx="6" fill="#ecfeff"/>
<text x="190.0" y="84.0" text-anchor="middle" dominant-baseline="middle">Пользователь</text>
<text x="190.0" y="106.0" text-anchor="middle" dominant-baseline="middle">(трейдер)</text>
<rect class="node" x="480" y="60" width="240" height="70" rx="6" fill="#fef9c3"/>
<text x="600.0" y="84.0" text-anchor="middle" dominant-baseline="middle">Открытые источники</text>
<text x="600.0" y="106.0" text-anchor="middle" dominant-baseline="middle">рыночных данных</text>
<rect class="node" x="890" y="60" width="240" height="70" rx="6" fill="#fce7f3"/>
<text x="1010.0" y="95.0" text-anchor="middle" dominant-baseline="middle">Администратор</text>
<rect class="node" x="70" y="190" width="240" height="78" rx="6" fill="#f8fafc"/>
<text x="190.0" y="218.0" text-anchor="middle" dominant-baseline="middle">Страницы сайта</text>
<text x="190.0" y="240.0" text-anchor="middle" dominant-baseline="middle">CryptoTrade</text>
<rect class="node" x="480" y="190" width="240" height="78" rx="6" fill="#eef2ff"/>
<text x="600.0" y="229.0" text-anchor="middle" dominant-baseline="middle">Python backend/API</text>
<rect class="node" x="890" y="190" width="240" height="78" rx="6" fill="#f8fafc"/>
<text x="1010.0" y="218.0" text-anchor="middle" dominant-baseline="middle">Административная</text>
<text x="1010.0" y="240.0" text-anchor="middle" dominant-baseline="middle">панель</text>
<rect class="node" x="70" y="330" width="220" height="78" rx="6" fill="#ecfdf5"/>
<text x="180.0" y="358.0" text-anchor="middle" dominant-baseline="middle">Рынок</text>
<text x="180.0" y="380.0" text-anchor="middle" dominant-baseline="middle">криптовалют</text>
<rect class="node" x="350" y="330" width="220" height="78" rx="6" fill="#ecfdf5"/>
<text x="460.0" y="358.0" text-anchor="middle" dominant-baseline="middle">Сделка</text>
<text x="460.0" y="380.0" text-anchor="middle" dominant-baseline="middle">покупки/продажи</text>
<rect class="node" x="630" y="330" width="220" height="78" rx="6" fill="#ecfdf5"/>
<text x="740.0" y="358.0" text-anchor="middle" dominant-baseline="middle">Портфель</text>
<text x="740.0" y="380.0" text-anchor="middle" dominant-baseline="middle">пользователя</text>
<rect class="node" x="910" y="330" width="220" height="78" rx="6" fill="#ecfdf5"/>
<text x="1020.0" y="358.0" text-anchor="middle" dominant-baseline="middle">История</text>
<text x="1020.0" y="380.0" text-anchor="middle" dominant-baseline="middle">операций</text>
<rect class="node" x="350" y="520" width="500" height="88" rx="6" fill="#fff7ed"/>
<text x="600.0" y="553.0" text-anchor="middle" dominant-baseline="middle">SQLite-база cryptotrade.db</text>
<text x="600.0" y="575.0" text-anchor="middle" dominant-baseline="middle">users, currencies, wallets, transactions, price_history</text>
<rect class="node" x="70" y="520" width="220" height="88" rx="6" fill="#f1f5f9"/>
<text x="180.0" y="553.0" text-anchor="middle" dominant-baseline="middle">Политика</text>
<text x="180.0" y="575.0" text-anchor="middle" dominant-baseline="middle">и соглашение</text>
<rect class="node" x="910" y="520" width="220" height="88" rx="6" fill="#f1f5f9"/>
<text x="1020.0" y="553.0" text-anchor="middle" dominant-baseline="middle">Симуляция</text>
<text x="1020.0" y="575.0" text-anchor="middle" dominant-baseline="middle">активности</text>
</svg>